<svg xmlns="http://www.w3.org/2000/svg" viewBox="0 0 800 560" fill="none">

<rect width="800" height="560" fill="#eaf4ec"/>

<rect x="470" y="90" width="260" height="190" rx="10" fill="#faf8f3" stroke="#0f4a30" stroke-width="4"/>
<rect x="470" y="90" width="260" height="34" rx="10" fill="#0f4a30"/>
<g stroke="#1c7f42" stroke-width="4" stroke-linecap="round">
  <path d="M500 160h200"/>
  <path d="M500 190h200"/>
  <path d="M500 220h140"/>
</g>
<circle cx="700" cy="255" r="14" fill="#24904c"/>
<path d="M693 255l5 6 11-13" stroke="#faf8f3" stroke-width="3.5" stroke-linecap="round" stroke-linejoin="round" fill="none"/>
<rect x="585" y="280" width="10" height="90" fill="#0f4a30"/>
<rect x="520" y="365" width="12" height="70" fill="#0f4a30"/><rect x="655" y="365" width="12" height="70" fill="#0f4a30"/><g transform="translate(300 210) scale(1.25 1.25)">
<rect x="-25" y="120" width="20" height="78" rx="9" fill="#06231a" opacity="0.85"/>
<rect x="5" y="120" width="20" height="78" rx="9" fill="#06231a" opacity="0.85"/>
<rect x="-35" y="35" width="70" height="92" rx="20" fill="#146c3a"/>
<rect x="-52" y="42" width="16" height="70" rx="8" fill="#146c3a"/>
<rect x="30" y="-6" width="16" height="60" rx="8" fill="#146c3a" transform="rotate(28 38 24)"/>
<rect x="-10" y="18" width="20" height="20" fill="#e9ddc4"/>
<circle cx="0" cy="-6" r="30" fill="#e9ddc4"/>
<path d="M-30 -8a30 26 0 0160 0z" fill="#24904c"/>
<rect x="-34" y="-8" width="68" height="8" rx="4" fill="#24904c"/>
</g><g transform="translate(150 260) scale(0.95 0.95)">
<rect x="-25" y="120" width="20" height="78" rx="9" fill="#06231a" opacity="0.85"/>
<rect x="5" y="120" width="20" height="78" rx="9" fill="#06231a" opacity="0.85"/>
<rect x="-35" y="35" width="70" height="92" rx="20" fill="#a9cdb2"/>
<rect x="-52" y="42" width="16" height="70" rx="8" fill="#a9cdb2"/>
<rect x="36" y="42" width="16" height="70" rx="8" fill="#a9cdb2"/>
<rect x="-10" y="18" width="20" height="20" fill="#e9ddc4"/>
<circle cx="0" cy="-6" r="30" fill="#e9ddc4"/>
</g><ellipse cx="400" cy="470" rx="360" ry="26" fill="#e4ddc8" opacity="0.5"/>
<g transform="translate(120 120)">
  <circle r="46" fill="#faf8f3" stroke="#1c7f42" stroke-width="4"/>
  <path d="M-14 0l10 11 20-24" stroke="#1c7f42" stroke-width="6" stroke-linecap="round" stroke-linejoin="round" fill="none"/>
</g>
</svg>